<svg width="550" height="508" viewBox="0 0 550 508" fill="none" xmlns="http://www.w3.org/2000/svg">
<path d="M0 0.773438H187.45C195.182 0.773438 201.45 7.04145 201.45 14.7734V468.648C201.45 490.187 183.989 507.648 162.45 507.648H45.4887L60.6896 496.703C69.8021 490.142 75.6445 479.972 76.7218 468.795L79.753 437.347V90.8012C79.753 87.8988 79.429 85.0055 78.787 82.175L71.1711 48.5958C68.3988 36.3725 59.9208 26.2265 48.3848 21.3263L0 0.773438Z" fill="#150C07"/>
<path d="M246.939 1.9648C246.939 1.9648 485.607 -29.0709 485.607 155.554C485.607 306.798 277.659 307.97 277.659 307.97C277.659 307.97 402.859 280.33 391.676 146.694C379.861 5.50151 246.939 1.9648 246.939 1.9648Z" fill="#6B4F3A"/>
<path d="M203.813 306.79H317.239C317.239 306.79 376.723 305.011 415.897 355.233C508.056 473.383 550 507.649 550 507.649H476.745C476.745 507.649 427.121 498.549 398.765 477.52C346.187 438.53 350.322 416.67 270.569 341.052C246.855 318.567 203.813 306.79 203.813 306.79Z" fill="#6B4F3A"/>
</svg>
